<?xml version="1.0" encoding="iso-8859-1"?>
<!-- Generator: Adobe Illustrator 16.0.0, SVG Export Plug-In . SVG Version: 6.00 Build 0)  -->
<!DOCTYPE svg PUBLIC "-//W3C//DTD SVG 1.1//EN" "http://www.w3.org/Graphics/SVG/1.1/DTD/svg11.dtd">
<svg version="1.1" id="Capa_1" xmlns="http://www.w3.org/2000/svg" xmlns:xlink="http://www.w3.org/1999/xlink" x="0px" y="0px"
	 width="449.154px" height="449.154px" viewBox="0 0 449.154 449.154" style="enable-background:new 0 0 449.154 449.154;"
	 xml:space="preserve">
<g>
	<g>
		<path d="M179.37,387.604c-12.088,0-21.924,9.836-21.924,21.917c0,12.085,9.836,21.916,21.924,21.916
			c12.085,0,21.914-9.836,21.914-21.916C201.283,397.44,191.455,387.604,179.37,387.604z M179.37,425.359
			c-8.737,0-15.849-7.099-15.849-15.838c0-8.729,7.112-15.839,15.849-15.839c8.729,0,15.838,7.1,15.838,15.839
			S188.099,425.359,179.37,425.359z"/>
		<path d="M186.778,399.07h-14.835c-1.676,0-3.034,1.361-3.034,3.042v14.833c0,1.676,1.358,3.042,3.034,3.042h14.835
			c1.683,0,3.042-1.356,3.042-3.042v-14.833C189.82,400.432,188.454,399.07,186.778,399.07z M183.739,413.903h-8.755v-8.749h8.755
			V413.903z"/>
		<path d="M269.953,379.754c1.671,0,3.042-1.355,3.042-3.042V72.442c0-1.673-1.361-3.042-3.042-3.042H88.796
			c-1.676,0-3.042,1.361-3.042,3.042v304.27c0,1.676,1.358,3.042,3.042,3.042H269.953z M91.838,75.484h175.073v298.187H91.838
			V75.484z"/>
		<path d="M168.127,38.062h22.482c1.676,0,3.042-1.358,3.042-3.042c0-1.681-1.358-3.042-3.042-3.042h-22.482
			c-1.684,0-3.042,1.361-3.042,3.042C165.085,36.704,166.443,38.062,168.127,38.062z"/>
		<path d="M159.35,52.893h40.037c1.676,0,3.042-1.361,3.042-3.042c0-1.684-1.358-3.042-3.042-3.042H159.35
			c-1.673,0-3.042,1.358-3.042,3.042C156.308,51.531,157.669,52.893,159.35,52.893z"/>
		<path d="M114.866,449.154h128.991c27.121,0,49.185-22.063,49.185-49.185V49.186C293.042,22.066,270.979,0,243.857,0H114.866
			C87.745,0,65.689,22.066,65.689,49.186V399.97C65.689,427.091,87.752,449.154,114.866,449.154z M77.744,49.186
			c0-20.47,16.653-37.13,37.122-37.13h128.991c20.475,0,37.13,16.653,37.13,37.13V399.97c0,20.469-16.655,37.13-37.13,37.13H114.866
			c-20.469,0-37.122-16.65-37.122-37.13V49.186z"/>
		<circle cx="141.417" cy="49.857" r="3.579"/>
		<path d="M369.877,0.673h-16.062c-7.49,0-13.588,6.091-13.588,13.586v421.292c0,7.49,6.093,13.589,13.588,13.589h16.062
			c7.49,0,13.589-6.089,13.589-13.589V14.251C383.466,6.764,377.367,0.673,369.877,0.673z M371.411,435.551
			c0,0.848-0.69,1.533-1.534,1.533h-16.062c-0.843,0-1.533-0.686-1.533-1.533v-43.244H371.4v43.244H371.411z M371.411,386.224
			h-19.119V14.251c0-0.845,0.686-1.531,1.534-1.531h16.051c0.844,0,1.534,0.686,1.534,1.531V386.224z"/>
		<circle cx="361.859" cy="105.15" r="6.502"/>
		<circle cx="361.859" cy="135.905" r="6.502"/>
		<path d="M361.859,70.523c1.676,0,3.031-1.358,3.031-3.039V52.047c0-1.676-1.355-3.042-3.031-3.042s-3.042,1.358-3.042,3.042
			v15.437C358.817,69.165,360.179,70.523,361.859,70.523z"/>
	</g>
</g>
<g>
</g>
<g>
</g>
<g>
</g>
<g>
</g>
<g>
</g>
<g>
</g>
<g>
</g>
<g>
</g>
<g>
</g>
<g>
</g>
<g>
</g>
<g>
</g>
<g>
</g>
<g>
</g>
<g>
</g>
</svg>
